<svg width="75" height="75" viewBox="0 0 75 75" fill="none" xmlns="http://www.w3.org/2000/svg">
<path fill-rule="evenodd" clip-rule="evenodd" d="M6.60488 28.3259L1.8198 32.9229L1.46751 33.2601C0.514714 34.1721 0.0237753 35.3891 0.000832464 36.6142C-0.0219441 37.8396 0.422612 39.0743 1.34066 40.0216L1.8572 40.5544C1.8035 40.6815 3.53353 42.2944 3.75664 42.5139L4.10992 42.8783V42.8619L26.3045 64.7299C30.4606 64.012 34.9903 62.0239 38.939 59.0847C43.7473 55.5061 47.751 50.4645 49.0347 44.54C45.9361 50.5607 40.36 51.7129 34.2068 50.2116C28.9564 48.9304 23.2926 45.6776 18.453 41.9015C13.6154 38.1268 9.58329 33.8124 7.60156 30.4131C7.17213 29.6767 6.83647 28.9769 6.60488 28.3259Z" fill="#4D9F34"/>
<path fill-rule="evenodd" clip-rule="evenodd" d="M47.1865 8.13736C46.7809 7.33736 45.5917 5.91347 44.1925 4.41376H44.1943L44.1446 4.36252C43.5862 3.76508 42.9955 3.15695 42.4091 2.57207L41.6488 1.78772C40.7311 0.841169 39.5065 0.353293 38.2737 0.330162C37.0406 0.307692 35.7979 0.749288 34.8453 1.6618L34.3725 2.11435L34.3691 2.11126L7.63572 27.3524C7.60097 27.3851 7.57104 27.4216 7.54395 27.4603C7.73231 28.1489 8.09723 28.951 8.61079 29.8322C10.5225 33.1111 14.4473 37.3002 19.1746 40.9889C22.5449 43.6187 26.3137 45.9854 30.0397 47.5764C26.115 44.0307 25.7882 38.9859 27.0495 34.0988C28.1011 30.0254 30.3324 25.7325 33.1256 21.7709C37.232 15.947 42.5765 10.8166 47.1865 8.13736Z" fill="url(#paint0_linear_0_475)"/>
<path fill-rule="evenodd" clip-rule="evenodd" d="M47.6158 7.82007L47.6838 7.88616L47.4742 8.00614C47.5227 7.94451 47.57 7.88252 47.6158 7.82007ZM70.0418 43.3621L70.0844 43.3181L73.2063 40.2368L73.7173 39.5666C75.4753 37.7512 75.4191 34.8365 73.5925 33.0895L72.2044 31.762L72.2141 31.7264L59.8751 19.7347C57.2533 19.8733 54.5025 20.0106 53.5828 19.8057C52.5683 20.9462 51.8598 22.02 50.5924 21.6478C47.6549 20.7852 48.9949 16.82 51.3879 17.2901C53.0771 17.622 52.5605 18.8131 53.9085 18.9496C54.2525 18.9844 56.5158 18.9223 58.9488 18.8342L48.545 8.72317C45.9422 10.1299 43.0412 12.4268 40.2532 15.2446L41.3608 15.1908C43.323 11.5333 46.5967 14.5223 45.4685 16.5309C44.677 17.9402 43.3528 18.1284 42.3298 17.3296C41.4948 16.6773 41.8176 15.7245 39.3298 16.3311L39.2651 16.2702C38.7823 16.7847 38.3044 17.3138 37.8335 17.8558C39.874 19.5427 41.85 21.3974 43.6231 23.4211C44.0018 23.2266 44.4998 23.1544 45.1309 23.2696C46.8064 23.5753 46.1271 24.5461 47.6408 24.8266C48.8223 25.0457 49.4627 24.7019 50.6807 24.7417C51.9118 24.782 58.6909 24.7609 59.3554 24.2527C60.4522 23.4138 60.4914 22.5003 62.0437 22.8536C64.5934 23.4338 64.1289 27.3196 61.4253 27.1293C59.6873 27.0069 60.1405 25.8518 58.925 25.5903L47.1242 25.874C46.8285 26.2525 46.5423 26.5585 46.267 26.8047C47.7086 28.8995 48.9111 31.1602 49.7208 33.5708C50.1136 33.1554 50.71 32.951 51.4674 33.2177C53.1374 33.8056 52.622 34.9241 52.568 35.8416L53.1776 36.384C57.6665 40.3088 57.1042 40.4671 60.0785 40.2517C62.5418 40.0732 65.8617 39.7876 69.3475 39.5105L74.0058 39.2388C74.0204 39.238 73.6859 39.5025 73.3153 40.0939C72.0731 40.1798 67.1734 40.5443 65.9023 40.6378C56.0804 41.3605 58.5262 42.0874 54.1745 38.3443C51.9692 36.4473 52.4613 36.4585 51.117 36.6143C50.8942 36.6401 50.6925 36.6371 50.5103 36.6107C51.0682 39.645 50.9539 42.7612 50.0479 45.8862C52.221 45.893 56.8015 45.8128 57.3287 45.4095C58.3697 44.6132 58.407 43.7461 59.8806 44.0815C62.3008 44.6322 61.8599 48.321 59.2934 48.1401C57.6435 48.024 58.0738 46.9276 56.92 46.6793L49.7422 46.8519C49.0436 48.8929 48.0444 50.8154 46.8211 52.5945C48.3626 51.9206 49.5241 54.3085 49.5241 54.3085C52.6428 54.364 55.7999 54.3341 58.9363 54.3217L70.0416 43.3605L70.0418 43.3621ZM73.5103 33.011L74.1637 33.7512C72.1198 33.8675 65.2379 34.4167 63.1824 34.5618C59.708 34.8068 61.6238 34.6502 60.2116 35.7937C59.3247 36.512 57.6503 35.9992 57.3779 34.689C57.1413 33.5511 58.4778 32.3648 59.5726 32.6601C61.5924 33.2048 59.4868 34.0294 62.6926 33.7674L73.5103 33.011ZM42.8673 60.6857C41.8798 59.3973 42.804 58.3254 44.2951 59.258C44.531 60.5781 44.1701 60.9577 42.8673 60.6857ZM46.5679 54.933C46.2926 52.9806 48.011 53.2488 48.354 54.0028C48.835 55.0601 47.7256 55.7996 46.5679 54.933ZM60.1865 34.2299C59.9169 35.0226 59.8164 35.1093 58.9596 35.3598L58.1951 34.7338C58.4359 33.1639 59.3179 33.0376 60.1865 34.2299ZM62.6519 25.3297C61.2477 27.1002 59.9283 25.3934 60.6253 24.3358C61.0058 23.7582 61.5804 23.7193 62.0555 23.9452C62.8436 24.3197 62.6236 24.9887 62.6519 25.3297ZM51.1406 20.8017C48.2099 19.3771 51.5219 16.632 52.3113 19.7776L51.1406 20.8017ZM39.8173 70.1585C38.2463 70.3648 37.8086 69.0449 39.3767 68.2623C40.3774 68.7543 40.7061 69.2554 39.8173 70.1585ZM43.6459 16.8812C42.2451 16.2351 41.8597 14.7129 43.4399 14.4834C44.2878 14.3605 45.6093 15.4897 43.6459 16.8812ZM60.4579 46.4321C59.1248 48.1127 57.8725 46.4924 58.534 45.4885C58.8952 44.9402 59.4407 44.9033 59.8918 45.1178C60.6397 45.4733 60.4311 46.1083 60.4579 46.4321ZM41.9157 11.9655L42.5988 10.9662C42.7059 10.9332 42.8083 10.8963 42.9066 10.8577C42.8678 11.0854 42.5973 11.1427 42.5663 11.447L42.137 11.8736L41.9157 11.9655ZM19.8159 26.4726L20.2635 26.1208L20.0035 26.7177L19.8159 26.4726ZM50.2641 35.4528C50.1026 35.1953 49.9758 34.9235 50.0345 34.5813C50.1795 34.2879 50.5638 34.0519 51.1903 34.009L51.7472 34.2483L52.0149 34.7668C51.9321 35.3276 51.6786 35.7041 51.2481 35.8905C50.8054 35.8095 50.4772 35.6483 50.2641 35.4528ZM58.0392 55.2071L53.6187 59.5703C50.8682 59.5382 48.0576 59.4992 45.419 59.6198C42.7026 54.766 39.4374 61.7366 43.4678 61.6934C45.4966 61.6715 44.0015 60.5254 46.26 60.4562C48.3703 60.3916 50.5726 60.3778 52.7909 60.3873L46.465 66.6312C46.0664 66.6664 45.7372 66.6447 45.2564 66.268C44.1915 65.4335 42.8369 63.4436 41.6577 63.3995C39.9789 63.3368 35.1627 63.8287 32.5672 63.8287C33.7194 63.3578 34.8425 62.819 35.9231 62.2288C39.5589 60.2414 42.9638 57.5111 45.6004 54.233C45.5086 55.2798 46.3142 56.3404 47.5688 56.2733C49.9489 56.1463 46.6308 55.2053 52.1173 55.2098L58.0392 55.2071ZM45.7417 26.063C45.328 25.4951 44.8964 24.939 44.4492 24.3944C44.5998 24.3113 44.7626 24.2412 44.9324 24.1884C46.0152 24.8912 46.0843 25.6141 45.7417 26.063ZM45.6985 67.3877L39.2483 73.7542C39.1764 73.8251 39.1014 73.8829 39.0176 73.9393C38.0966 74.5385 36.527 74.136 35.7374 73.3482C34.3657 71.9792 33.2667 70.9418 32.2415 69.9682C34.4232 69.8789 37.3321 69.8033 37.6262 70.0392C38.233 70.5258 38.0098 70.9532 39.1453 71.1248C40.4256 71.3183 41.4123 69.9378 41.1207 68.8308C40.7591 67.4583 39.1722 67.1325 38.2811 67.8717C37.1428 68.8159 38.4773 68.9775 35.357 69.052L31.3944 69.1606C30.2358 68.0493 29.1013 66.9236 27.6805 65.3669L27.6576 65.3496C28.6576 65.1407 29.6503 64.8697 30.6278 64.5461C32.3798 64.8225 35.2605 64.0656 36.8679 64.4778C37.334 64.2341 37.8176 64.3173 38.6 64.2852C39.3027 64.2563 39.8246 64.2556 40.5292 64.2117C42.3207 64.0993 42.0554 64.2884 44.3398 66.4427C45.0974 67.1573 45.1784 67.362 45.6985 67.3877Z" fill="url(#paint1_linear_0_475)"/>
<defs>
<linearGradient id="paint0_linear_0_475" x1="10.0086" y1="35.9177" x2="29.5791" y2="11.004" gradientUnits="userSpaceOnUse">
<stop stop-color="#4D9F34"/>
<stop offset="0.490196" stop-color="#297A4F"/>
<stop offset="1" stop-color="#04556B"/>
</linearGradient>
<linearGradient id="paint1_linear_0_475" x1="47.6822" y1="18.0876" x2="45.2237" y2="64.7584" gradientUnits="userSpaceOnUse">
<stop stop-color="#04556B"/>
<stop offset="1" stop-color="#4D9F34"/>
</linearGradient>
</defs>
</svg>
